# xmcd CD database file
#
# Track frame offsets:
#	150
#	15615
#	31883
#	49558
#	69019
#	85487
#	105338
#	120373
#	137179
#
# Disc length: 2009 seconds
#
# Revision: 0
# Processed by: cddbd v1.5.2PL0 Copyright (c) Steve Scherf et al.
# Submitted via: CDex 1.70beta2
#
DISCID=6407d709
DTITLE=Williams, Murry (06) - Cdn. - ON - Cty. - Pure and Simple
DYEAR=2006
DGENRE=Country
TTITLE0=Thank a Farmer
TTITLE1=Bring Them Back
TTITLE2=Farmin' Life
TTITLE3=Yeares Go By
TTITLE4=Old Man
TTITLE5=Cruise On
TTITLE6=Infomercials
TTITLE7=Farmer Joe
TTITLE8=Girl of My Dreams
EXTD=YEAR: 2006
EXTT0=
EXTT1=
EXTT2=
EXTT3=
EXTT4=
EXTT5=
EXTT6=
EXTT7=
EXTT8=
PLAYORDER=
